<svg width="48" height="48" viewBox="0 0 48 48" fill="none" xmlns="http://www.w3.org/2000/svg">
<path d="M29.0006 5.86424C29.2615 9.23143 28.0404 12.0673 26.2728 12.1983C24.5054 12.3294 22.8611 9.70596 22.6002 6.33879C22.3392 2.9716 23.5604 0.135742 25.3279 0.00470294C27.0953 -0.126336 28.7395 2.49708 29.0006 5.86424Z" fill="#0E73F8"/>
<path d="M25.3159 41.8218C25.5698 45.0988 24.3266 47.8627 22.5392 47.995C20.7517 48.1277 19.0968 45.5786 18.8428 42.3019C18.5888 39.0251 19.832 36.2613 21.6196 36.1287C23.4071 35.9963 25.062 38.5451 25.3159 41.8218Z" fill="#0E73F8"/>
<path d="M37.7357 10.9775C36.924 14.1652 35.4146 16.5471 34.4222 16.3054C33.4301 16.0637 33.0607 13.1938 33.8724 10.0061C34.6841 6.81846 36.3694 4.43697 37.3618 4.67868C38.3539 4.92037 38.5474 7.78986 37.7357 10.9775Z" fill="#0E73F8"/>
<path d="M14.0304 37.9904C13.2711 41.1904 11.8009 43.5958 10.8048 43.3697C9.80875 43.1434 9.39235 40.2796 10.1517 37.0798C10.9111 33.8799 12.5573 31.4721 13.5533 31.6982C14.5494 31.9245 14.7898 34.7904 14.0304 37.9904Z" fill="#0E73F8"/>
<path d="M38.2805 36.9803C39.6583 39.9629 39.1536 43.0972 37.1534 43.9812C35.1533 44.865 32.4149 43.1639 31.037 40.1812C29.6592 37.1986 30.1639 34.0641 32.1641 33.1801C34.1642 32.2963 36.9026 33.9977 38.2805 36.9803Z" fill="#0E73F8"/>
<path d="M17.0572 7.83167C18.435 10.8143 18.0853 13.9502 16.0851 14.8341C14.0849 15.718 10.9948 14.0709 9.61702 11.0882C8.23927 8.10564 8.80831 4.89666 10.8085 4.01275C12.8087 3.12886 15.6794 4.84906 17.0572 7.83167Z" fill="#0E73F8"/>
<path d="M12.2553 24.0771C12.2553 27.3501 9.79147 30.067 6.49145 30.067C3.19145 30.067 0 27.3214 0 24.0487C0 20.7757 2.81069 18.0805 6.11069 18.0805C9.41071 18.0805 12.2553 20.8042 12.2553 24.0771Z" fill="#0E73F8"/>
<path d="M48 24.0771C48 27.3501 45.5362 30.067 42.2362 30.067C38.9362 30.067 35.7446 27.3214 35.7446 24.0487C35.7446 20.7757 38.5553 18.0805 41.8553 18.0805C45.1553 18.0805 48 20.8042 48 24.0771Z" fill="#0E73F8"/>
</svg>
